<svg id="Layer_1" data-name="Layer 1" xmlns="http://www.w3.org/2000/svg" viewBox="0 0 5.07 5.07"><defs><style>.cls-1{fill:#6e6f72;}.cls-2{fill:#f1f2f2;}</style></defs><circle class="cls-1" cx="2.53" cy="2.53" r="2.53"/><path class="cls-2" d="M21.94,21.65a.37.37,0,0,0,.15-.11.45.45,0,0,0,.1-.31.54.54,0,0,0-.09-.31.66.66,0,0,0-.55-.22h-1v2.06h.94a1.36,1.36,0,0,0,.29,0,.64.64,0,0,0,.24-.1.46.46,0,0,0,.14-.17.51.51,0,0,0,.1-.32.62.62,0,0,0-.08-.31A.55.55,0,0,0,21.94,21.65Zm-1-.59h.46a.78.78,0,0,1,.24,0,.22.22,0,0,1,0,.37.48.48,0,0,1-.22.05H21Zm.72,1.3a.41.41,0,0,1-.21,0H21v-.55h.52a.41.41,0,0,1,.21,0,.23.23,0,0,1,.13.22A.25.25,0,0,1,21.68,22.36Z" transform="translate(-19.72 -19.15)"/><rect class="cls-2" x="2.98" y="1.65" width="0.89" height="0.26"/><path class="cls-2" d="M23.91,21.81a.82.82,0,0,0-.12-.32.58.58,0,0,0-.27-.22.86.86,0,0,0-.36-.07.78.78,0,0,0-.56.21.81.81,0,0,0-.21.6.72.72,0,0,0,.24.61.81.81,0,0,0,.54.19.75.75,0,0,0,.58-.22.52.52,0,0,0,.15-.28h-.41a.31.31,0,0,1-.08.11.42.42,0,0,1-.23.07.38.38,0,0,1-.22-.06.35.35,0,0,1-.16-.32h1.12A2.45,2.45,0,0,0,23.91,21.81Zm-1.1,0a.38.38,0,0,1,.11-.24.3.3,0,0,1,.24-.09.36.36,0,0,1,.24.09.3.3,0,0,1,.1.24Z" transform="translate(-19.72 -19.15)"/></svg>