<svg id="Layer_1" data-name="Layer 1" xmlns="http://www.w3.org/2000/svg" viewBox="0 0 19.87 19.38"><defs><style>.cls-1{fill:#191919;}</style></defs><path class="cls-1" d="M26.83,17.1c-.7-3.24-2.19-5.3-3.57-5.3s-2.87,2.06-3.57,5.3Z" transform="translate(-13.32 -11.39)"/><path class="cls-1" d="M19.28,21.08a19.66,19.66,0,0,0,.18,2.65h7.6a21.43,21.43,0,0,0,.17-2.65,21.31,21.31,0,0,0-.17-2.65h-7.6A19.55,19.55,0,0,0,19.28,21.08Z" transform="translate(-13.32 -11.39)"/><path class="cls-1" d="M19.69,25.05c.7,3.25,2.19,5.3,3.57,5.3s2.87-2.05,3.57-5.3Z" transform="translate(-13.32 -11.39)"/><path class="cls-1" d="M28.18,17.1h4.18a10,10,0,0,0-6.93-5.71A10.27,10.27,0,0,1,28.18,17.1Z" transform="translate(-13.32 -11.39)"/><path class="cls-1" d="M32.83,18.43H28.39a21.31,21.31,0,0,1,.17,2.65,21.43,21.43,0,0,1-.17,2.65h4.44a9.93,9.93,0,0,0,0-5.3Z" transform="translate(-13.32 -11.39)"/><path class="cls-1" d="M25.43,30.77a10,10,0,0,0,6.93-5.72H28.18A10.31,10.31,0,0,1,25.43,30.77Z" transform="translate(-13.32 -11.39)"/><path class="cls-1" d="M18.33,25.05H14.16a10,10,0,0,0,6.92,5.72A10.44,10.44,0,0,1,18.33,25.05Z" transform="translate(-13.32 -11.39)"/><path class="cls-1" d="M21.08,11.39a10,10,0,0,0-6.92,5.71h4.17A10.41,10.41,0,0,1,21.08,11.39Z" transform="translate(-13.32 -11.39)"/><path class="cls-1" d="M18,21.08a21.3,21.3,0,0,1,.16-2.65H13.68a9.93,9.93,0,0,0,0,5.3h4.44A21.42,21.42,0,0,1,18,21.08Z" transform="translate(-13.32 -11.39)"/></svg>