<svg id="Layer_1" data-name="Layer 1" xmlns="http://www.w3.org/2000/svg" viewBox="0 0 5.07 5.07"><defs><style>.cls-1{fill:#6e6f72;}.cls-2{fill:#f1f2f2;}</style></defs><circle class="cls-1" cx="2.53" cy="2.53" r="2.53"/><g id="_10.Linkedin" data-name="10.Linkedin"><path class="cls-2" d="M24.63,26.05v-1c0-.49-.11-.87-.68-.87a.58.58,0,0,0-.54.3h0v-.25h-.54v1.82h.57v-.9c0-.24,0-.47.33-.47s.3.27.3.48v.89Z" transform="translate(-20.72 -22.15)"/><path class="cls-2" d="M21.93,24.23h.57v1.82h-.57Z" transform="translate(-20.72 -22.15)"/><path class="cls-2" d="M22.22,23.32a.32.32,0,0,0-.33.32.33.33,0,1,0,.66,0A.32.32,0,0,0,22.22,23.32Z" transform="translate(-20.72 -22.15)"/></g></svg>