<svg id="Layer_1" data-name="Layer 1" xmlns="http://www.w3.org/2000/svg" viewBox="0 0 19.87 19.87"><defs><style>.cls-1{fill:#231f20;}</style></defs><path class="cls-1" d="M32.41,26a11.42,11.42,0,0,1-3.55-.56,1.61,1.61,0,0,0-1.57.33L25.05,27.5A12.42,12.42,0,0,1,19.5,22l1.64-2.18a1.6,1.6,0,0,0,.39-1.63A11.42,11.42,0,0,1,21,14.59,1.6,1.6,0,0,0,19.37,13H15.72a1.59,1.59,0,0,0-1.59,1.59A18.3,18.3,0,0,0,32.41,32.87,1.59,1.59,0,0,0,34,31.28V27.64A1.6,1.6,0,0,0,32.41,26Z" transform="translate(-14.13 -13)"/></svg>