<svg id="Layer_1" data-name="Layer 1" xmlns="http://www.w3.org/2000/svg" xmlns:xlink="http://www.w3.org/1999/xlink" viewBox="0 0 33.8 42.27"><defs><style>.cls-1{fill:none;}.cls-2{fill:#191919;}.cls-3{fill:#f1f2f2;}.cls-4{clip-path:url(#clip-path);}</style><clipPath id="clip-path" transform="translate(-5.99 -2.73)"><rect id="SVGID" class="cls-1" x="27.96" y="39.77" width="9.19" height="3.76"/></clipPath></defs><rect class="cls-2" x="0.03" width="33.74" height="42.27"/><polygon class="cls-3" points="16.87 16.93 8.45 8.5 16.87 8.5 16.87 16.93"/><polygon class="cls-3" points="25.33 33.8 33.75 25.38 33.75 33.8 25.33 33.8"/><polygon class="cls-3" points="16.91 25.37 8.47 33.8 8.47 25.37 16.91 25.37"/><rect class="cls-3" x="8.49" y="16.94" width="8.41" height="8.41" rx="4.2"/><path class="cls-3" d="M16.9,25.37h8.44a0,0,0,0,1,0,0v8.44a0,0,0,0,1,0,0h0a8.44,8.44,0,0,1-8.44-8.44v0A0,0,0,0,1,16.9,25.37Z"/><path class="cls-3" d="M14.47,32.31v4.23A8.45,8.45,0,0,1,6,28.08h4.22A4.23,4.23,0,0,0,14.47,32.31Z" transform="translate(-5.99 -2.73)"/><path class="cls-3" d="M10.22,36.54h4.22A8.45,8.45,0,0,1,6,45V40.76A4.22,4.22,0,0,0,10.22,36.54Z" transform="translate(-5.99 -2.73)"/><path class="cls-3" d="M10.24,28.1H6a8.45,8.45,0,0,1,8.45-8.45v4.22A4.24,4.24,0,0,0,10.24,28.1Z" transform="translate(-5.99 -2.73)"/><path class="cls-3" d="M31.33,23.89v4.23a8.45,8.45,0,0,1-8.45-8.46H27.1A4.23,4.23,0,0,0,31.33,23.89Z" transform="translate(-5.99 -2.73)"/><path class="cls-3" d="M6,2.79h8.44a0,0,0,0,1,0,0v8.44a0,0,0,0,1,0,0h0A8.44,8.44,0,0,1,6,2.79v0A0,0,0,0,1,6,2.79Z" transform="translate(11.25 -5.95) rotate(90)"/><path class="cls-3" d="M0,8.51H8.46a0,0,0,0,1,0,0v8.44a0,0,0,0,1,0,0h0A8.44,8.44,0,0,1,0,8.51v0A0,0,0,0,1,0,8.51Z"/><rect class="cls-3" x="8.45" y="33.81" width="4.2" height="4.2"/><rect class="cls-3" x="12.66" y="38.01" width="4.2" height="4.2"/><g id="Artwork_38" data-name="Artwork 38"><g class="cls-4"><g class="cls-4"><path class="cls-3" d="M32.66,41.27a.55.55,0,0,1,.38-.16.5.5,0,0,1,.29.09.62.62,0,0,1,.19.23l-.22.06a.3.3,0,0,0-.48-.07.33.33,0,0,0-.09.23.32.32,0,0,0,.09.23A.29.29,0,0,0,33,42a.29.29,0,0,0,.18,0,.26.26,0,0,0,.11-.14h-.28v-.19h.51v.08a.48.48,0,0,1-.15.37.46.46,0,0,1-.36.15.51.51,0,0,1-.38-.16.52.52,0,0,1-.15-.38.54.54,0,0,1,.15-.38" transform="translate(-5.99 -2.73)"/><path class="cls-3" d="M33.75,41.49a.38.38,0,0,1,.28-.12.32.32,0,0,1,.22.08v-.08h.21v.82h-.21v-.08a.35.35,0,0,1-.22.08.38.38,0,0,1-.28-.12.44.44,0,0,1-.11-.29.38.38,0,0,1,.11-.29m.09.29a.21.21,0,1,0,.36-.15.2.2,0,0,0-.3,0,.2.2,0,0,0-.06.15" transform="translate(-5.99 -2.73)"/><path class="cls-3" d="M34.84,41.37v.08a.32.32,0,0,1,.2-.08.29.29,0,0,1,.24.12.27.27,0,0,1,.12-.09.32.32,0,0,1,.14,0,.3.3,0,0,1,.2.08.32.32,0,0,1,.09.23v.51h-.21v-.46a.21.21,0,0,0,0-.12.13.13,0,0,0-.1,0c-.09,0-.14,0-.15.16v.46h-.22v-.46a.21.21,0,0,0,0-.12.1.1,0,0,0-.09,0c-.06,0-.1,0-.12,0a.2.2,0,0,0,0,.14v.43h-.21v-.82Z" transform="translate(-5.99 -2.73)"/><path class="cls-3" d="M36.07,41.49a.36.36,0,0,1,.27-.12.29.29,0,0,1,.22.08v-.08h.22v.82h-.22v-.08a.33.33,0,0,1-.22.08.37.37,0,0,1-.27-.12.4.4,0,0,1-.12-.29.38.38,0,0,1,.12-.29m.08.29a.18.18,0,0,0,.07.15.2.2,0,0,0,.15.06.2.2,0,0,0,.14-.06.2.2,0,0,0,0-.3.21.21,0,0,0-.14-.07.21.21,0,0,0-.15.07.18.18,0,0,0-.07.15" transform="translate(-5.99 -2.73)"/><rect class="cls-3" x="30.94" y="38.38" width="0.22" height="1.08"/><polygon class="cls-3" points="27.25 39.75 27.25 39.85 26.62 39.85 26.62 40.23 27.19 40.23 27.19 40.32 26.62 40.32 26.62 40.7 27.25 40.7 27.25 40.8 26.52 40.8 26.52 39.75 27.25 39.75"/><rect class="cls-3" x="27.42" y="39.75" width="0.11" height="1.05"/><path class="cls-3" d="M33.79,42.83a.4.4,0,0,1,.29-.12.36.36,0,0,1,.31.18v-.41h.1v1.05h-.1v-.18a.27.27,0,0,1-.13.13.35.35,0,0,1-.18.05.4.4,0,0,1-.29-.12.39.39,0,0,1-.11-.29.38.38,0,0,1,.11-.29m0,.29a.31.31,0,0,0,.31.31.29.29,0,0,0,.21-.09.29.29,0,0,0,0-.44.3.3,0,0,0-.21-.1.3.3,0,0,0-.22.1.29.29,0,0,0-.09.22" transform="translate(-5.99 -2.73)"/><path class="cls-3" d="M34.68,42.5l.06,0,0,0a.07.07,0,0,1,0,.06.05.05,0,0,1,0,0s0,0,0,0,0,0-.06,0a.08.08,0,0,1,0,0,.11.11,0,0,1,0-.06m.11,1h-.11v-.8h.11Z" transform="translate(-5.99 -2.73)"/><path class="cls-3" d="M35.07,42.83a.4.4,0,0,1,.29-.12.39.39,0,0,1,.27.1.43.43,0,0,1,.13.26v.09h-.7a.29.29,0,0,0,.09.2.31.31,0,0,0,.21.07.37.37,0,0,0,.15,0,.32.32,0,0,0,.12-.11l.1,0a.39.39,0,0,1-.15.16.43.43,0,0,1-.22.06.38.38,0,0,1-.29-.12.41.41,0,0,1,0-.58m0,.24h.59a.25.25,0,0,0-.09-.19.3.3,0,0,0-.2-.08.32.32,0,0,0-.21.08.28.28,0,0,0-.09.19" transform="translate(-5.99 -2.73)"/><path class="cls-3" d="M35.91,42.71H36v.18a.32.32,0,0,1,.11-.12.35.35,0,0,1,.18-.05.36.36,0,0,1,.24.09.33.33,0,0,1,.1.24v.48h-.11v-.44a.26.26,0,0,0-.07-.2.24.24,0,0,0-.18-.07.23.23,0,0,0-.19.09.31.31,0,0,0-.08.22v.4h-.1Z" transform="translate(-5.99 -2.73)"/><polygon class="cls-3" points="25.74 39.24 25.74 40.8 24.18 39.24 25.74 39.24"/><path class="cls-3" d="M31.73,40.41l-.78.78a1.13,1.13,0,0,0-.78-.32,1.11,1.11,0,0,0-.78.32,1.09,1.09,0,0,0-.32.78,1.07,1.07,0,0,0,.32.78l-.78.78a2.21,2.21,0,0,1,3.12-3.12" transform="translate(-5.99 -2.73)"/></g></g></g><path class="cls-3" d="M31.33,2.78h8.46a0,0,0,0,1,0,0v8.46a0,0,0,0,1,0,0h0a8.46,8.46,0,0,1-8.46-8.46v0A0,0,0,0,1,31.33,2.78Z" transform="translate(65.13 11.29) rotate(-180)"/><polygon class="cls-3" points="33.76 16.92 25.3 16.92 33.76 8.46 33.76 16.92"/><path class="cls-3" d="M27.1,11.24H22.88a8.45,8.45,0,0,1,8.45-8.46V7A4.23,4.23,0,0,0,27.1,11.24Z" transform="translate(-5.99 -2.73)"/></svg>